<svg width="185" height="140" viewBox="0 0 185 140" fill="none" xmlns="http://www.w3.org/2000/svg">
<path d="M55.5 91.3333V70.5C55.5 49.7893 72.2893 33 93 33C113.711 33 130.5 49.7893 130.5 70.5V91.3333" stroke="white" stroke-width="5" stroke-linecap="round" stroke-linejoin="round"/>
<path d="M68 98.4762C68 103.736 72.264 108 77.5238 108C81.4687 108 84.6667 104.802 84.6667 100.857V81.8095C84.6667 77.8645 81.4687 74.6666 77.5238 74.6666C72.264 74.6666 68 78.9304 68 84.1904V98.4762Z" stroke="white" stroke-width="5" stroke-linecap="round" stroke-linejoin="round"/>
<path d="M118 98.4762C118 103.736 113.736 108 108.476 108C104.531 108 101.333 104.802 101.333 100.857V81.8095C101.333 77.8645 104.531 74.6666 108.476 74.6666C113.736 74.6666 118 78.9304 118 84.1904V98.4762Z" stroke="white" stroke-width="5" stroke-linecap="round" stroke-linejoin="round"/>
</svg>
